Patient4_TMGait_0pt4_03_right_20_EMG.mot
version=1
nRows=27
nColumns=33
inDegrees=no
endheader
time	1LAddLong	2LGlutMax	3LGlutMed	4LIliopsoas	5LSemiMemb	6LBicFemLong	7LRecFem	8LVastMed	9LVastLat	10LGasMed	11LTibAnt	12lTibPost	13LPeroneusLong	14LSol	15LExtDigLong	16LFlexDigLong	17RAddLong	18RGlutMax	19RGlutMed	20RIliopsoas	21RSemiMemb	22RBicFemLong	23RRecFem	24RVastMed	25RVastLat	26RGasMed	27RTibAnt	28RTibPost	29RPeroneusLong	30RSol	31RExtDigLong	32RFlexDigLong
25.957	0.006409	-0.10346	-0.004272	-0.000153	0.011902	-0.056763	-0.08255	0.005035	-0.060577	0.023651	0.006409	-0.16892	-0.93964	-0.64774	0.071716	0.069122	0.02594	-0.45181	-0.52689	0.052795	-0.24109	0.12543	0.13962	0.1683	0.68741	0.043945	-0.023041	-0.023651	0.54123	-0.13565	-0.005341	-0.001678
25.958	0.005798	-0.087585	-0.001068	0.005951	0.00351	-0.058594	-0.077209	0.007477	-0.052185	-0.3537	0.010223	-0.06073	-0.97351	-0.39963	0.084534	-0.036011	0.060272	-0.42358	-0.71655	-0.098267	-0.067444	0.050201	-0.021515	-0.039978	0.19424	0.037689	-0.21118	-0.060577	-0.35248	-0.46417	0	0.003357
25.959	0.008087	-0.081329	0.004425	0.002594	0.019836	-0.04425	-0.043945	0.004578	-0.051575	-0.49667	0.006104	0.79849	-0.67886	0.5101	0.009918	-0.94666	0.061493	-0.35797	-0.50949	-0.1181	0.075073	0.033112	-0.24735	-0.057373	-0.35187	0.000305	-0.075531	-0.07309	-1.6771	-0.21713	-0.001221	-0.001373
25.96	0.003967	-0.070953	0.016022	-0.007172	0.013885	-0.065918	-0.06073	0.006714	-0.04715	-0.18723	0.004425	0.36346	-0.26779	0.793	-0.081482	0.33264	0.042725	-0.31738	-0.62836	-0.012512	0.12161	-0.059967	-0.20981	0.059967	-0.75897	-0.023804	-0.12207	-0.23865	0.14374	0.077667	-0.001068	0.00351
25.961	0.000458	-0.06134	0.002594	-0.003967	0.007324	-0.049896	-0.050049	0.002899	-0.040588	0.24246	-0.023346	-0.43564	0.32364	1.0745	0.032196	-0.48141	0.040741	-0.16846	-0.51987	0.059814	-0.03479	-0.18555	0.028839	0.073853	-0.74249	-0.031433	-0.13428	-0.059967	0.86456	-0.074463	0.000153	-0.014343
25.962	0.005798	-0.059967	0.005646	-0.00824	0.005798	-0.058746	-0.06485	0.00351	-0.034027	0.48599	-0.017395	0.051117	0.5513	2.133	0.03418	0.26733	0.015411	-0.21774	-0.68771	0.17105	-0.093994	-0.20111	0.31555	0.12024	-0.71075	-0.019836	0.075836	0.16434	0.40741	-0.19943	-0.00412	0.004272
25.963	0.004883	-0.063782	0.009308	0.007172	0.006256	-0.055847	-0.06012	0.008545	-0.020447	0.29816	-0.019226	-0.096893	0.62164	2.5963	-0.02121	1.1165	0.006104	-0.20432	-0.56839	0.14923	-0.25574	-0.16785	0.48828	0.091248	-0.34683	-0.014648	0.24796	0.19943	0.35873	-0.21927	-0.007324	0.003815
25.964	0	-0.072021	-0.00351	0.00885	0.017395	-0.046844	-0.037079	0.001068	-0.002136	0.12131	-0.018768	0.22293	0.46493	0.79773	-0.063477	-0.30167	-0.049133	-0.22995	-0.088501	0.13794	-0.19806	-0.26779	0.35065	0.11643	-0.098572	-0.016022	0.24658	0.066528	1.2575	-0.12634	0.001373	0.00061
25.965	0.005341	-0.078278	-0.031128	0.00824	0.001526	-0.04715	0.024719	-0.001678	0.003662	0.14374	-0.011292	-0.28412	0.392	-1.9472	-0.1088	0.62622	-0.040131	-0.29694	0.30029	0.12863	0.018921	-0.39703	0.31052	0.13443	-0.078278	-0.006256	0.007324	0.004578	0.32974	0.32211	-0.003052	0.006409
25.966	-0.002594	-0.065155	-0.04425	0.00946	0.007935	-0.029144	0.051422	0.001373	-0.003052	0.10101	-0.019989	-0.23743	0.43289	-2.0811	-0.10757	-0.14038	0.011902	-0.29495	0.44983	-0.005188	0.18677	-0.33356	0.30197	-0.048981	-0.075989	0.004883	-0.04364	-0.020447	-1.6931	0.33707	-0.00824	-0.000458
25.967	-0.002441	-0.058746	-0.074158	0.00412	0.014496	-0.044861	0.074158	0.005035	0.013885	0.25971	-0.024414	0.27847	0.43579	-1.4893	-0.080261	-0.27863	-0.025787	-0.31952	0.57251	-0.13062	-0.088806	-0.001373	0.34088	0.002441	-0.077972	0.002441	0.036316	-0.027771	-0.65704	0.075226	0.001678	-0.004272
25.968	0.000458	-0.045624	-0.079041	0.013885	0.030365	-0.027771	0.070343	0.000458	0.035248	0.17685	-0.014191	-0.24948	0.053711	-0.95825	-0.032654	0.39505	-0.10803	-0.4245	0.59006	-0.40237	-0.58258	0.19134	0.26108	0.089569	-0.085907	0.005035	-0.11749	-0.029297	-0.14496	-0.097504	-0.001068	-0.005493
25.969	0.006561	-0.054626	-0.069427	0.011749	0.011749	-0.037079	0.096588	0.004272	0.030518	-0.003357	0.015411	-0.2565	-0.24872	-0.006256	-0.034637	0.28458	-0.10468	-0.57709	-0.13947	-0.42725	-0.31586	0.0737	0.30762	0.12589	-0.066528	0.027771	-0.12726	-0.018768	-0.52826	-0.21484	-0.001221	-0.009766
25.97	-0.000763	-0.060272	-0.071716	0.013733	0.008545	-0.029602	0.063782	-0.000916	0.044861	-0.082703	0.035248	-0.068359	-0.27298	-0.26855	-0.057068	-0.47287	-0.090027	-0.57434	-0.7312	-0.24918	0.088501	-0.003662	0.31509	0.070648	-0.059052	0.032043	-0.16403	-0.022888	0.049591	-0.27206	-0.00351	-0.009766
25.971	-0.001984	-0.063171	-0.055847	0.010834	0.004425	-0.030823	0.018463	-0.002899	0.046997	-0.0914	0.038147	0.075531	-0.12528	-0.60165	-0.040588	0.11337	-0.059662	-0.56259	-0.6929	-0.051422	0.29846	-0.064545	0.31296	0.14221	-0.059509	0.011597	-0.088043	-0.025177	0.42282	-0.003204	-0.001678	-0.013123
25.972	-0.003357	-0.088806	-0.027466	-0.001526	0.006409	-0.034027	-0.042419	0.003357	0.056458	-0.11643	0.011597	0.25528	-0.007477	-0.14603	0.018005	0.047913	-0.040436	-0.634	-0.91629	0.1503	0.29037	-0.070496	0.34775	0.11871	-0.040283	0	-0.040894	-0.018005	0.36682	0.25574	-0.000916	-0.013123
25.973	-0.006561	-0.10849	-0.027313	-0.000458	0.000458	-0.023499	-0.037842	0.002747	0.082245	-0.16327	-0.019836	-0.27313	-0.053253	-0.17197	0.030518	0.032349	0.019836	-0.79742	-0.83099	0.49454	0.23132	-0.045013	0.4007	0.070648	-0.039063	0.000305	0.006409	-0.024872	0.00061	0.080872	-0.001068	-0.011292
25.974	-0.003357	-0.10056	-0.000458	0.005035	0.005341	-0.025024	-0.031586	0.004272	0.094147	-0.17105	-0.01297	0.086212	0.1329	0.10849	0.02594	-0.25162	0.02243	-0.97015	-0.439	0.53879	-0.15045	0.10773	0.36758	0.085754	-0.039215	0.010529	0.001831	-0.019073	-0.52445	-0.037842	-0.000305	-0.0177
25.975	0.00061	-0.068207	0.012054	-0.002136	0.00946	-0.033112	-0.002594	-0.013885	0.10986	-0.14053	-0.010986	-0.061188	0.36331	0.040436	0.039825	-0.10056	0.007019	-0.89874	-0.24292	0.27649	-0.22812	-0.02594	0.34439	0.076599	-0.000153	0.023193	-0.056763	-0.015411	0.42679	-0.07309	0.002441	-0.005188
25.976	-0.000153	-0.042114	0.000916	0.007782	0.005035	-0.035248	0.026093	0.010223	0.11078	-0.10346	0.00061	-0.2272	0.18021	0.27252	0.039215	0.032196	-0.006409	-0.90057	-0.35004	0.093689	-0.19287	-0.13153	0.31815	0.1001	-0.048676	0.010529	-0.099487	-0.023193	1.0701	-0.077515	-0.001678	-0.001068
25.977	-0.002136	-0.061493	-0.014801	-0.005798	0.013275	-0.020447	0.045319	-0.001526	0.11902	-0.076904	-0.010376	0.40878	0.062866	0.4335	-0.000916	0.1619	-0.041656	-1.1678	0.071259	0.042114	0.11475	-0.074768	0.3038	0.10086	-0.006104	-0.050812	-0.039368	-0.020142	0.39337	0.069275	-0.000305	0.004883
25.978	0.000763	-0.081177	-0.025787	0.016022	0.010986	-0.024872	0.06958	-0.002899	0.12512	0.005798	-0.015259	0.17624	0.13458	0.6073	-0.046082	-0.49667	-0.005035	-1.3257	0.076599	0.084229	0.30426	-0.049438	0.30411	-0.041504	0.001068	-0.073242	0.15091	-0.028839	-0.44769	0.17883	0.001526	-0.001373
25.979	-0.002289	-0.096588	-0.025177	-0.015106	0.004425	-0.035248	0.080261	0.000916	0.10895	0.12589	-0.001678	-0.29205	-0.12451	0.39398	-0.047607	0.29572	0.050507	-1.3898	0.027618	0.026855	0.16785	-0.058136	0.29755	-0.1648	0.023041	-0.048676	0.14786	-0.031433	0.056915	-0.11398	0.008392	-0.009003
25.98	0.00061	-0.070038	-0.010986	-0.004883	0.00824	-0.028992	0.078735	0.001373	0.11414	0.1297	0.02533	-0.12528	-0.38162	-0.10834	0.044861	0.15656	0.079041	-1.49	-0.18951	-0.025787	0.068817	-0.064697	0.2179	-0.21774	0.00946	-0.034943	0.052643	-0.051422	0.31342	-0.24323	-0.003052	-0.007935
25.981	-0.007629	-0.08728	-0.00473	0.00824	0.00351	-0.030365	0.087128	0.007019	0.11719	0.049438	0.030518	-0.031891	-0.50934	-0.33875	0.095673	0.061951	0.067902	-1.6092	-0.32318	-0.079346	-0.1413	-0.12405	0.015411	-0.26855	-0.054474	-0.026855	-0.009766	-0.006714	0	0.070343	-0.002899	-0.002289
25.982	-0.007477	-0.10391	0.003662	-0.004578	0.008392	-0.028534	0.11429	0.001526	0.12558	-0.018158	0.008087	-0.014496	-0.12772	-0.06958	0.041199	0.17303	-0.020752	-1.6534	-0.98145	-0.059662	-0.41351	-0.003815	-0.18158	-0.11749	-0.010071	0	-0.006714	0.005341	-0.37994	0.076294	-0.002899	-0.008545
25.983	-0.00351	-0.093842	0.003052	-0.001373	0.00946	-0.031281	0.10056	0.005798	0.12787	-0.094147	0.006866	-0.04776	-0.20645	0.51514	0.006104	-0.46906	-0.082092	-1.6521	-1.1278	-0.06073	-0.32852	0.15549	-0.067291	0.018005	0.029755	-0.00351	0.19318	-0.000458	-1.3051	0.16846	-0.002747	-0.005341
